HIERARCHY
ROOT Hips
{
    OFFSET 0.000000 0.000000 0.000000
    CHANNELS 6 Xposition Yposition Zposition Zrotation Xrotation Yrotation
    JOINT Spine
    {
        OFFSET -0.000000 7.856138 0.000000
        CHANNELS 3 Zrotation Xrotation Yrotation
        JOINT Spine1
        {
            OFFSET -0.000000 20.830866 0.000000
            CHANNELS 3 Zrotation Xrotation Yrotation
            JOINT Neck
            {
                OFFSET -0.000000 20.745317 1.885938
                CHANNELS 3 Zrotation Xrotation Yrotation
                JOINT Head
                {
                    OFFSET -0.000000 13.412918 -1.916131
                    CHANNELS 3 Zrotation Xrotation Yrotation
                    End Site
                    {
                        OFFSET -0.000000 23.951641 0.000000
                    }
                }
            }
            JOINT LeftShoulder
            {
                OFFSET 3.826675 19.078362 -0.073511
                CHANNELS 3 Zrotation Xrotation Yrotation
                JOINT LeftArm
                {
                    OFFSET 10.442133 0.000000 0.000000
                    CHANNELS 3 Zrotation Xrotation Yrotation
                    JOINT LeftForeArm
                    {
                        OFFSET 37.051945 0.000000 0.000000
                        CHANNELS 3 Zrotation Xrotation Yrotation
                        JOINT LeftHand
                        {
                            OFFSET 24.394852 0.000000 0.000000
                            CHANNELS 3 Zrotation Xrotation Yrotation
                            End Site
                            {
                                OFFSET 14.370985 0.000000 0.000000
                            }
                        }
                    }
                }
            }
            JOINT RightShoulder
            {
                OFFSET -3.827599 19.078362 -0.073511
                CHANNELS 3 Zrotation Xrotation Yrotation
                JOINT RightArm
                {
                    OFFSET -10.442133 0.000000 0.000000
                    CHANNELS 3 Zrotation Xrotation Yrotation
                    JOINT RightForeArm
                    {
                        OFFSET -37.051945 0.000000 0.000000
                        CHANNELS 3 Zrotation Xrotation Yrotation
                        JOINT RightHand
                        {
                            OFFSET -24.394852 0.000000 0.000000
                            CHANNELS 3 Zrotation Xrotation Yrotation
                            End Site
                            {
                                OFFSET -14.370985 0.000000 0.000000
                            }
                        }
                    }
                }
            }
        }
    }
    JOINT LeftUpLeg
    {
        OFFSET 9.580656 0.000000 0.000000
        CHANNELS 3 Zrotation Xrotation Yrotation
        JOINT LeftLeg
        {
            OFFSET -0.000000 -43.769192 0.000000
            CHANNELS 3 Zrotation Xrotation Yrotation
            JOINT LeftFoot
            {
                OFFSET -0.000000 -42.531967 0.000000
                CHANNELS 3 Zrotation Xrotation Yrotation
                JOINT LeftToeBase
                {
                    OFFSET -0.000000 -6.227426 14.370985
                    CHANNELS 3 Zrotation Xrotation Yrotation
                    End Site
                    {
                        OFFSET -0.000000 0.000000 3.832262
                    }
                }
            }
        }
    }
    JOINT RightUpLeg
    {
        OFFSET -9.580656 0.000000 0.000000
        CHANNELS 3 Zrotation Xrotation Yrotation
        JOINT RightLeg
        {
            OFFSET -0.000000 -43.769192 0.000000
            CHANNELS 3 Zrotation Xrotation Yrotation
            JOINT RightFoot
            {
                OFFSET -0.000000 -42.531967 0.000000
                CHANNELS 3 Zrotation Xrotation Yrotation
                JOINT RightToeBase
                {
                    OFFSET -0.000000 -6.227426 14.370985
                    CHANNELS 3 Zrotation Xrotation Yrotation
                    End Site
                    {
                        OFFSET -0.000000 0.000000 3.832262
                    }
                }
            }
        }
    }
}
MOTION
Frames:    4
Frame Time:    0.008333
165.066040    45.589996    49.335873    0.338691    -2.643359    164.816132    12.161017    42.203575    -5.639278    -21.646164    27.515854    4.427932    4.001540    -15.958070    3.597757    5.560678    -12.075606    3.949444    19.725605    -2.855085    -15.278543    14.736857    21.994177    -52.568825    12.071179    -15.327995    -27.567106    50.146275    -3.541628    19.013824    -0.925721    -4.505455    32.729744    -2.792946    14.673721    43.020927    -6.999298    -11.952107    12.076232    -42.654537    -6.803144    -11.429152    50.777611    -62.848309    35.805328    -164.890656    38.163887    135.197769    24.972147    -33.122906    37.797142    0.000000    0.000000    0.000000    -35.143478    -77.599731    -32.533684    168.149490    47.574314    -145.941528    -23.129982    -29.903875    -31.939129    0.000000    0.000000    0.000000    
165.321701    45.817917    49.006454    0.447055    -2.419872    165.097137    12.281523    42.106159    -5.682994    -21.469433    27.506134    4.372539    3.745375    -15.832863    3.473253    5.642761    -12.211517    3.924582    19.628820    -2.461888    -15.277883    16.035624    22.347723    -53.227219    11.946473    -17.045580    -26.594448    46.841370    -6.425726    18.346336    -0.982162    -4.120278    33.137661    -3.315603    15.372158    43.140465    -7.358377    -12.543980    11.313229    -41.502277    -7.512445    -11.519932    50.183861    -62.430771    35.179104    -165.053238    38.216156    135.028870    25.422543    -32.266903    37.635426    0.000000    0.000000    0.000000    -33.456978    -77.072029    -31.041580    168.326904    47.603493    -147.196716    -22.796255    -29.568228    -31.312538    0.000000    0.000000    0.000000    
165.563995    46.061180    48.710739    0.513940    -2.296601    165.285675    12.271605    42.130589    -5.609976    -21.241241    27.170305    4.320537    3.403934    -15.820601    3.360699    5.949303    -12.294510    3.985879    19.792912    -2.145431    -15.325678    16.384127    22.364042    -53.728798    11.635364    -18.571939    -25.977524    44.171085    -8.840463    17.907957    -1.092600    -3.691932    33.442963    -2.959153    15.198155    43.195934    -7.243889    -12.250260    10.838465    -41.388081    -7.073314    -12.034800    49.648170    -62.045341    34.775925    -165.187225    38.525311    135.578186    23.985123    -33.099281    37.934494    0.000000    0.000000    0.000000    -33.003387    -76.304535    -26.757368    164.248383    46.599621    -140.149475    -23.669395    -29.079113    -32.496468    0.000000    0.000000    0.000000    
165.772659    46.334404    48.471340    0.495500    -2.485687    165.493484    12.254781    41.832069    -5.439878    -21.048380    26.877359    4.341755    3.638626    -16.139524    3.347230    5.438928    -11.964501    3.753077    19.727436    -1.948885    -15.450424    16.688442    22.172766    -54.257301    11.423279    -19.686888    -25.321560    40.563923    -10.901438    17.546791    -1.110127    -3.335917    33.692760    -2.497245    15.108676    43.035217    -7.123444    -11.902225    10.899675    -41.658745    -6.295965    -13.076229    49.444828    -61.917629    34.539955    -165.236572    38.643501    134.974228    23.901081    -32.982815    38.532379    0.000000    0.000000    0.000000    -32.762901    -76.056900    -24.568369    162.231888    46.192417    -136.890427    -23.593191    -29.055962    -32.659492    0.000000    0.000000    0.000000    
